<svg viewBox="0 0 3011.22 1214.81" xmlns="http://www.w3.org/2000/svg" xmlns:xlink="http://www.w3.org/1999/xlink" overflow="hidden"><defs></defs><g id="Layer_2"><g id="Layer_1-2"><path d="M319 13.75C343.852 23.2549 366.877 36.9771 387.062 54.3125L327.25 125.125C313.038 114.587 299.288 106.566 286 101.062 272.478 95.5181 257.989 92.7139 243.375 92.8125 213.125 92.8125 189.521 105.875 172.562 132 155.601 158.125 147.122 197.542 147.125 250.25 147.125 302.962 155.719 342.149 172.906 367.812 190.094 393.486 214.042 406.32 244.75 406.312 260.545 406.468 276.172 403.061 290.469 396.344 304.444 389.705 319.684 379.966 336.188 367.125L392.562 438.625C373.764 457.424 351.191 472.778 324.844 484.688 298.482 496.601 269.951 502.559 239.25 502.562 193.875 502.562 154.344 492.823 120.656 473.344 86.9688 453.868 60.9584 425.222 42.625 387.406 24.2883 349.594 15.1217 303.875 15.125 250.25 15.125 198 24.5208 153.083 43.3125 115.5 62.1006 77.9238 88.2256 49.278 121.688 29.5625 155.139 9.8613 193.639 0.00713333 237.188 0 267.438 0 294.708 4.58333 319 13.75Z" fill="#FFFFFF"/><path d="M558.934 12.375 558.934 391.188 742.497 391.188 728.747 490.188 431.747 490.188 431.747 12.375Z" fill="#FFFFFF"/><path d="M1121.31 66C1159.81 110 1179.06 171.646 1179.06 250.938 1179.06 302.736 1170.46 347.538 1153.28 385.344 1136.09 423.156 1111 452.146 1078 472.312 1045 492.476 1005.58 502.559 959.745 502.562 890.533 502.562 836.794 480.562 798.526 436.562 760.252 392.562 741.117 330.688 741.12 250.938 741.12 199.149 749.714 154.462 766.901 116.875 784.089 79.2988 809.068 50.4238 841.839 30.25 874.603 10.0869 913.905 0.00353333 959.745 0 1028.95 0 1082.8 22 1121.31 66ZM894.089 128.562C880.102 153.312 873.113 194.104 873.12 250.938 873.12 307.774 880.224 348.681 894.433 373.656 908.634 398.643 930.405 411.132 959.745 411.125 989.995 411.125 1012 398.75 1025.75 374 1039.5 349.25 1046.37 308.229 1046.37 250.938 1046.37 194.111 1039.5 153.32 1025.75 128.562 1012 103.812 989.995 91.4375 959.745 91.4375 929.946 91.4375 908.061 103.812 894.089 128.562Z" fill="#FFFFFF"/><path d="M1612.17 330C1612.17 363 1604.96 392.562 1590.52 418.688 1576.08 444.812 1554.42 465.323 1525.55 480.219 1496.67 495.107 1461.38 502.555 1419.67 502.562 1356.42 502.562 1308.53 487.094 1275.99 456.156 1243.44 425.219 1227.17 383.167 1227.17 330L1227.17 12.375 1354.36 12.375 1354.36 325.875C1354.36 354.75 1359.52 375.948 1369.83 389.469 1380.14 402.993 1396.76 409.754 1419.67 409.75 1442.59 409.75 1459.09 402.875 1469.17 389.125 1479.25 375.375 1484.29 354.292 1484.3 325.875L1484.3 12.375 1612.17 12.375Z" fill="#FFFFFF"/><path d="M2004.04 63.5938C2049.87 97.7432 2072.78 159.733 2072.79 249.562 2072.79 409.986 1992.35 490.195 1831.48 490.188L1678.85 490.188 1678.85 12.375 1821.85 12.375C1897.48 12.375 1958.21 29.4479 2004.04 63.5938ZM1806.04 103.125 1806.04 399.438 1839.04 399.438C1873.87 399.438 1899.65 388.438 1916.38 366.438 1933.11 344.438 1941.47 305.479 1941.48 249.562 1941.48 211.062 1937.47 181.156 1929.45 159.844 1921.42 138.531 1909.96 123.75 1895.07 115.5 1880.17 107.25 1861.27 103.125 1838.35 103.125Z" fill="#FFFFFF"/><path d="M294.594 728.062C322.411 738.668 347.787 754.806 369.188 775.5L312.125 842.875C279.125 816.75 244.521 803.688 208.312 803.688 189.514 803.688 175.191 807.24 165.344 814.344 155.482 821.455 150.555 831.424 150.562 844.25 150.562 853.424 153.083 860.986 158.125 866.938 163.163 872.899 171.642 878.629 183.562 884.125 195.476 889.625 214.268 896.5 239.938 904.75 288.976 920.337 324.84 939.93 347.531 963.531 370.219 987.143 381.563 1019.8 381.562 1061.5 381.562 1091.75 373.771 1118.45 358.188 1141.59 342.601 1164.74 320.028 1182.73 290.469 1195.56 260.906 1208.39 226.187 1214.81 186.312 1214.81 110.226 1214.81 48.1217 1191.67 0 1145.38L62.5625 1075.94C100.601 1107.11 140.246 1122.69 181.5 1122.69 203.038 1122.69 219.767 1117.99 231.688 1108.59 243.601 1099.21 249.559 1086.72 249.562 1071.12 249.562 1060.12 247.271 1051.07 242.688 1043.97 238.101 1036.87 229.965 1030.45 218.281 1024.72 206.594 1018.99 189.521 1012.69 167.062 1005.81 112.976 988.861 74.9342 968.465 52.9375 944.625 30.9375 920.799 19.9375 890.778 19.9375 854.562 19.9375 826.149 27.6146 801.17 42.9688 779.625 58.3193 758.087 79.6318 741.472 106.906 729.781 134.17 718.094 164.764 712.25 198.688 712.25 234.889 712.25 266.857 717.521 294.594 728.062Z" fill="#FFFFFF"/><path d="M735.616 724.625 722.553 814.688 559.616 814.688 559.616 916.438 701.928 916.438 701.928 1003.75 559.616 1003.75 559.616 1112.38 733.553 1112.38 733.553 1202.44 432.428 1202.44 432.428 724.625Z" fill="#FFFFFF"/><path d="M1068.36 726C1093.21 735.505 1116.24 749.227 1136.42 766.562L1076.61 837.375C1062.4 826.837 1048.65 818.816 1035.36 813.312 1021.84 807.768 1007.35 804.964 992.737 805.062 962.487 805.062 938.883 818.125 921.925 844.25 904.963 870.375 896.484 909.792 896.487 962.5 896.487 1015.21 905.081 1054.4 922.269 1080.06 939.456 1105.74 963.404 1118.57 994.112 1118.56 1009.91 1118.72 1025.53 1115.31 1039.83 1108.59 1053.81 1101.96 1069.05 1092.22 1085.55 1079.38L1141.92 1150.88C1123.13 1169.67 1100.55 1185.03 1074.21 1196.94 1047.84 1208.85 1019.31 1214.81 988.612 1214.81 943.237 1214.81 903.706 1205.07 870.019 1185.59 836.331 1166.12 810.321 1137.47 791.987 1099.66 773.65 1061.84 764.484 1016.13 764.487 962.5 764.487 910.25 773.883 865.333 792.675 827.75 811.463 790.174 837.588 761.528 871.05 741.812 904.501 722.111 943.001 712.257 986.55 712.25 1016.8 712.25 1044.07 716.833 1068.36 726Z" fill="#FFFFFF"/><path d="M1553.05 1042.25C1553.05 1075.25 1545.83 1104.81 1531.39 1130.94 1516.95 1157.06 1495.3 1177.57 1466.42 1192.47 1437.55 1207.36 1402.25 1214.81 1360.55 1214.81 1297.3 1214.81 1249.4 1199.34 1216.86 1168.41 1184.31 1137.47 1168.04 1095.42 1168.05 1042.25L1168.05 724.625 1295.23 724.625 1295.23 1038.12C1295.23 1067 1300.39 1088.2 1310.7 1101.72 1321.01 1115.24 1337.63 1122 1360.55 1122 1383.46 1122 1399.96 1115.12 1410.05 1101.38 1420.12 1087.62 1425.16 1066.54 1425.17 1038.12L1425.17 724.625 1553.05 724.625Z" fill="#FFFFFF"/><path d="M1781.98 1026.44 1746.91 1026.44 1746.91 1202.44 1619.73 1202.44 1619.73 724.625 1785.41 724.625C1852.79 724.625 1903.09 736.771 1936.32 761.062 1969.54 785.361 1986.16 822.715 1986.16 873.125 1986.16 903.375 1979.17 928.583 1965.19 948.75 1951.21 968.924 1928.86 987.028 1898.16 1003.06L2017.1 1202.44 1875.48 1202.44ZM1746.91 939.812 1789.54 939.812C1833.54 939.812 1855.54 917.583 1855.54 873.125 1855.54 852.5 1849.47 837.375 1837.32 827.75 1825.17 818.125 1806.95 813.312 1782.66 813.312L1746.91 813.312Z" fill="#FFFFFF"/><path d="M2173.16 724.625 2173.16 1202.44 2045.97 1202.44 2045.97 724.625Z" fill="#FFFFFF"/><path d="M2587.72 724.625 2574.66 821.562 2461.91 821.562 2461.91 1202.44 2334.72 1202.44 2334.72 821.562 2215.1 821.562 2215.1 724.625Z" fill="#FFFFFF"/><path d="M3011.22 724.625 2858.59 1024.38 2858.59 1202.44 2731.41 1202.44 2731.41 1025.06 2578.78 724.625 2717.66 724.625 2796.72 927.438 2876.47 724.625Z" fill="#FFFFFF"/></g></g></svg>
