<svg viewBox="0 0 69.72 35.45" xmlns="http://www.w3.org/2000/svg" xmlns:xlink="http://www.w3.org/1999/xlink" overflow="hidden"><defs/><g id="Layer_2"><g id="Layer_1-2"><path d="M0 35.2 0 22.58 1 22.58C1.00236 25.5841 1.68619 28.5485 3 31.25 4.2 33.43 5.67667 34.52 7.43 34.52 8.28579 34.5385 9.10456 34.1713 9.66 33.52 10.253 32.8336 10.5607 31.9462 10.52 31.04 10.4513 29.5856 10.0693 28.1631 9.4 26.87 8.30621 24.7213 7.03514 22.6675 5.6 20.73 3.90313 18.4602 2.47682 16.0003 1.35 13.4 0.688082 11.621 0.349425 9.73811 0.349999 7.84 0.254708 5.83164 0.785865 3.8433 1.87 2.15 2.70549 0.811614 4.17224-0.001151 5.75 1.52588e-06 6.54045 0.0124716 7.31473 0.22583 8 0.620002 8.77895 1.05669 9.45973 1.64897 10 2.36L11.09 0.05 12.09 0.05 12.09 11.46 11.09 11.46C10.9716 8.79861 10.3436 6.18467 9.24 3.76 8.29 1.9 7.12 1 5.75 1 4.94172 0.965153 4.16151 1.30005 3.63 1.91 3.07926 2.6116 2.80207 3.48935 2.85 4.38 2.85 5.86 4.02333 8.19333 6.37 11.38 7.25 12.59 7.93 13.53 8.37 14.22 9.98164 16.4348 11.359 18.8108 12.48 21.31 13.2067 23.0291 13.5905 24.8737 13.61 26.74 13.7225 28.9576 13.1612 31.1574 12 33.05 11.0603 34.556 9.40508 35.465 7.63 35.45 6.66791 35.4586 5.71786 35.2356 4.86 34.8 3.9042 34.2895 3.04738 33.6121 2.33 32.8L1 35.2Z" stroke="none" stroke-width="1" stroke-linecap="butt" fill="#FFFFFF" fill-opacity="1"/><path d="M19.15 24 25.23 24 22.23 6.7ZM18 30.2C17.95 30.48 17.92 30.76 17.9 31.02 17.88 31.28 17.9 31.55 17.9 31.83 17.8368 32.4233 18.0685 33.0099 18.52 33.4 19.1661 33.7716 19.9057 33.9487 20.65 33.91L20.65 34.91 13.21 34.91 13.21 33.91C14.71 33.64 15.74 32.17 16.28 29.49 16.28 29.33 16.28 29.21 16.35 29.13L22 0.54 26.33 0.54 32.46 33.91 34.1 33.91 34.1 34.91 24.4 34.91 24.4 33.91 26.94 33.91 25.47 25.23 18.89 25.23Z" stroke="none" stroke-width="1" stroke-linecap="butt" fill="#FFFFFF" fill-opacity="1"/><path d="M33.78 34.93 33.78 33.93C34.6548 33.9356 35.4796 33.5232 36 32.82 36.4957 31.6115 36.688 30.3 36.56 29L36.56 1.56 34.21 1.56 34.21 0.56 41.21 0.56 50.09 21.36 50.09 6C50.1833 4.82374 49.9034 3.648 49.29 2.64 48.6524 1.87788 47.6787 1.48093 46.69 1.58L46.69 0.58 54.31 0.58 54.31 1.58 54.16 1.58C53.3913 1.48932 52.6256 1.7718 52.1 2.34 51.6306 3.34083 51.4405 4.44998 51.55 5.55L51.55 34.95 50.49 34.95 38.09 6.46 38.09 28.77C37.9871 30.123 38.3049 31.4747 39 32.64 39.766 33.4818 40.8624 33.946 42 33.91L42 34.91Z" stroke="none" stroke-width="1" stroke-linecap="butt" fill="#FFFFFF" fill-opacity="1"/><path d="M56.07 35.2 56.07 22.58 57.07 22.58C57.0628 25.5851 57.7472 28.5517 59.07 31.25 60.27 33.43 61.74 34.52 63.5 34.52 64.3552 34.5356 65.1728 34.169 65.73 33.52 66.3186 32.831 66.6257 31.9454 66.59 31.04 66.5213 29.5856 66.1393 28.1631 65.47 26.87 64.3737 24.7121 63.1063 22.6455 61.68 20.69 59.9797 18.4225 58.5532 15.9621 57.43 13.36 56.7681 11.581 56.4294 9.69811 56.43 7.8 56.3317 5.79271 56.8594 3.80445 57.94 2.11 58.7824 0.784028 60.2491-0.0136238 61.82 6.10352e-07 62.6206 0.00736155 63.4059 0.220892 64.1 0.620001 64.8751 1.0621 65.5549 1.6535 66.1 2.36L67.16 0.05 68.16 0.05 68.16 11.46 67.16 11.46C67.0372 8.79924 66.4094 6.18611 65.31 3.76 64.35 1.92 63.1867 1 61.82 1 61.0112 0.962172 60.2297 1.29761 59.7 1.91 59.1493 2.6116 58.8721 3.48935 58.92 4.38 58.92 5.86 60.0933 8.19333 62.44 11.38 63.32 12.59 63.99 13.53 64.44 14.22 66.0578 16.4326 67.4387 18.8089 68.56 21.31 69.2867 23.0291 69.6705 24.8737 69.69 26.74 69.801 28.9908 69.2181 31.2213 68.02 33.13 67.0817 34.6375 65.4256 35.547 63.65 35.53 62.6913 35.537 61.7449 35.3141 60.89 34.88 59.9342 34.3695 59.0774 33.6921 58.36 32.88L57.05 35.2Z" stroke="none" stroke-width="1" stroke-linecap="butt" fill="#FFFFFF" fill-opacity="1"/><rect x="25.58" y="24.04" width="42.6" height="1.2" stroke="none" stroke-width="1" stroke-linecap="butt" fill="#FFFFFF" fill-opacity="1"/></g></g></svg>
