<svg width="176" height="45" viewBox="0 0 176 45" fill="none" xmlns="http://www.w3.org/2000/svg">
<g clip-path="url(#clip0_199_48)">
<path d="M37.8241 9.93961L33.7715 7.59928L31.5281 6.3035C31.4466 6.2418 31.365 6.1823 31.2813 6.125L31.2659 6.15365L28.2248 11.4205L27.0766 13.4083L16.0603 32.4902L16.0559 32.499H25.1814L27.3345 28.7659C27.6628 28.1973 27.2529 27.4855 26.5962 27.4855H22.2924L30.5276 13.2188L30.7215 12.8838L30.7304 12.8662L31.7441 13.4502C32.7578 14.0363 33.3836 15.1184 33.3836 16.2885V28.2701C33.3836 29.4402 32.76 30.5222 31.7441 31.1084L30.6775 31.7255L22.4312 36.4855L21.3668 37.1003C20.3531 37.6865 19.1036 37.6865 18.0899 37.1003L17.0762 36.5163L14.5684 35.0685L11.5273 40.3353L11.7961 40.4918L14.0329 41.7832L18.0855 44.1235C19.0992 44.7097 20.3487 44.7097 21.3624 44.1235L27.6474 40.4962C27.6474 40.4962 27.6496 40.4962 27.6518 40.4962L31.5039 38.2727L37.8175 34.6277C38.8312 34.0416 39.457 32.9595 39.457 31.7894V12.7868C39.457 11.6167 38.8334 10.5346 37.8175 9.94842L37.8241 9.93961Z" fill="white"/>
<path d="M14.4982 27.4835L21.3186 15.6694L23.1808 12.4476H14.0552L11.9022 16.1807C11.5739 16.7493 11.9837 17.4611 12.6404 17.4611H16.9465L9.42083 30.4959L8.73107 31.6926L7.71737 31.1086C6.70366 30.5224 6.07782 29.4404 6.07782 28.2702V16.2887C6.07782 15.1185 6.70146 14.0365 7.71737 13.4503L8.78396 12.8355L17.0302 8.07547L18.0946 7.46064C19.1083 6.87446 20.3578 6.87446 21.3715 7.46064L24.8886 9.49025L25.228 8.90407L27.9297 4.2256L27.9452 4.19696C27.8526 4.15509 27.7578 4.11322 27.6631 4.07135L25.4241 2.77997L21.3715 0.439639C20.3578 -0.146546 19.1083 -0.146546 18.0946 0.439639L11.8118 4.06693L7.94876 6.29709L1.63956 9.93981C0.625852 10.526 0 11.608 0 12.7782V31.7807C0 32.9509 0.623649 34.0329 1.63956 34.6191L5.69217 36.9594L7.93774 38.2574L8.19778 38.4072L10.8995 33.7288L11.2367 33.1426L11.6091 32.4991L14.5004 27.4879L14.4982 27.4835Z" fill="#008080"/>
<path d="M58.29 30.3905L66.9374 20.1278H58.6492V17.3159H71.2478V19.7686L62.66 30.0313H71.3977V32.8432H58.2922V30.3905H58.29Z" fill="white"/>
<path d="M81.8406 33.1451C80.5845 33.1451 79.4474 32.9335 78.4293 32.5082C77.4112 32.0851 76.5451 31.5011 75.8267 30.7629C75.1083 30.0224 74.5552 29.174 74.1651 28.2176C73.7751 27.2612 73.5811 26.2497 73.5811 25.1853C73.5811 23.7066 73.9161 22.3536 74.5838 21.1305C75.2515 19.9074 76.2102 18.9246 77.4575 18.1864C78.7048 17.4459 80.1746 17.0757 81.8715 17.0757C83.5683 17.0757 85.0536 17.4459 86.2701 18.1864C87.4865 18.9268 88.4187 19.9052 89.0688 21.1217C89.7167 22.3359 90.0406 23.6449 90.0406 25.0487C90.0406 25.2867 90.0296 25.5269 90.0097 25.7737C89.9899 26.0205 89.9701 26.2233 89.9503 26.3819H77.8321C77.9114 27.162 78.1472 27.843 78.5351 28.4292C78.9229 29.0132 79.4232 29.4583 80.0314 29.7602C80.6396 30.0621 81.2919 30.2142 81.9905 30.2142C82.7882 30.2142 83.5419 30.0202 84.2493 29.6302C84.9567 29.2401 85.4415 28.7289 85.7015 28.0898L89.1437 29.0462C88.7647 29.8439 88.2203 30.5535 87.513 31.1706C86.8056 31.7898 85.9726 32.2724 85.014 32.6228C84.0553 32.971 82.9998 33.1473 81.8428 33.1473L81.8406 33.1451ZM77.7417 23.8389H85.9395C85.8602 23.0587 85.6354 22.3822 85.2674 21.807C84.8972 21.2319 84.4145 20.7845 83.8151 20.4628C83.2157 20.141 82.548 19.9802 81.8098 19.9802C81.0715 19.9802 80.4369 20.141 79.8507 20.4628C79.2623 20.7845 78.7841 21.2319 78.4139 21.807C78.0436 22.3822 77.8211 23.0587 77.7395 23.8389H77.7417Z" fill="white"/>
<path d="M107.814 32.8456H103.803V24.1762C103.803 22.9377 103.583 22.0342 103.144 21.4635C102.706 20.8927 102.097 20.6084 101.32 20.6084C100.782 20.6084 100.237 20.745 99.6886 21.0183C99.1398 21.2916 98.6462 21.6662 98.2077 22.1422C97.7691 22.6204 97.4496 23.1691 97.2491 23.7928V32.8456H93.2383V17.3161H96.859V20.2139C97.2579 19.544 97.7669 18.9755 98.384 18.5127C99.001 18.0499 99.715 17.6951 100.524 17.4483C101.333 17.2015 102.186 17.0781 103.082 17.0781C104.059 17.0781 104.863 17.2522 105.491 17.5959C106.119 17.9419 106.597 18.4047 106.928 18.9865C107.258 19.5683 107.485 20.225 107.615 20.9544C107.746 21.6838 107.809 22.4243 107.809 23.1735V32.8478L107.814 32.8456Z" fill="white"/>
<path d="M110.985 28.2661C110.985 27.2612 111.269 26.3797 111.838 25.6195C112.406 24.8592 113.2 24.2752 114.218 23.8609C115.236 23.4466 116.402 23.2395 117.72 23.2395C118.379 23.2395 119.046 23.2901 119.725 23.3893C120.404 23.4885 120.992 23.6493 121.49 23.8675V23.0323C121.49 22.0539 121.195 21.298 120.606 20.7691C120.018 20.2402 119.145 19.9758 117.988 19.9758C117.131 19.9758 116.314 20.1256 115.536 20.4253C114.758 20.725 113.94 21.1636 113.083 21.7409L111.796 19.1075C112.834 18.4288 113.896 17.9219 114.983 17.5803C116.069 17.241 117.213 17.0713 118.409 17.0713C120.644 17.0713 122.385 17.6222 123.63 18.7241C124.877 19.8259 125.501 21.3994 125.501 23.4444V28.3719C125.501 28.7862 125.576 29.0793 125.726 29.2578C125.876 29.4341 126.12 29.542 126.46 29.5817V32.8432C126.1 32.9027 125.776 32.9534 125.488 32.993C125.199 33.0327 124.954 33.0525 124.754 33.0525C123.956 33.0525 123.352 32.874 122.942 32.5148C122.533 32.1556 122.279 31.7171 122.18 31.1992L122.09 30.3905C121.411 31.2675 120.562 31.9463 119.546 32.4245C118.528 32.9027 117.493 33.1429 116.435 33.1429C115.377 33.1429 114.465 32.9313 113.636 32.5082C112.808 32.0851 112.16 31.5033 111.69 30.7629C111.221 30.0246 110.987 29.1917 110.987 28.2639L110.985 28.2661ZM120.741 29.044C120.959 28.8104 121.14 28.5768 121.279 28.3432C121.417 28.1096 121.488 27.8959 121.488 27.702V26.1549C121.01 25.961 120.49 25.809 119.932 25.7032C119.375 25.5974 118.844 25.5423 118.345 25.5423C117.308 25.5423 116.455 25.7605 115.787 26.199C115.119 26.6376 114.784 27.2149 114.784 27.9355C114.784 28.3256 114.894 28.6936 115.113 29.044C115.333 29.3944 115.65 29.6765 116.069 29.8902C116.488 30.104 116.986 30.212 117.565 30.212C118.145 30.212 118.751 30.0996 119.331 29.877C119.908 29.6544 120.377 29.3768 120.736 29.0462L120.741 29.044Z" fill="white"/>
<path d="M138.904 33.1452C137.707 33.1452 136.641 32.8764 135.702 32.3365C134.763 31.7987 134.027 31.0605 133.487 30.1217V32.8455H129.985V11.0024H133.996V20.0993C134.554 19.1627 135.287 18.4245 136.195 17.8846C137.103 17.3469 138.166 17.0758 139.382 17.0758C140.4 17.0758 141.328 17.2874 142.165 17.7127C143.003 18.138 143.725 18.7242 144.334 19.4734C144.942 20.2227 145.411 21.0821 145.74 22.0474C146.068 23.0148 146.233 24.0505 146.233 25.1546C146.233 26.2586 146.048 27.2944 145.68 28.2618C145.31 29.2292 144.796 30.0821 144.14 30.8225C143.481 31.563 142.707 32.1337 141.821 32.5392C140.933 32.9425 139.962 33.1452 138.904 33.1452ZM137.797 29.7339C138.437 29.7339 139.018 29.6127 139.547 29.3659C140.076 29.1213 140.534 28.7929 140.925 28.383C141.315 27.9731 141.612 27.4883 141.821 26.9308C142.031 26.3732 142.137 25.7915 142.137 25.1832C142.137 24.3414 141.962 23.5635 141.612 22.8495C141.264 22.1355 140.783 21.5626 140.175 21.1328C139.567 20.7031 138.853 20.4871 138.035 20.4871C137.456 20.4871 136.903 20.6194 136.374 20.8838C135.845 21.1483 135.376 21.5053 134.968 21.9548C134.558 22.4044 134.234 22.9134 133.996 23.482V27.1511C134.115 27.5434 134.311 27.896 134.58 28.2089C134.849 28.5218 135.164 28.7907 135.523 29.0155C135.882 29.2402 136.257 29.4165 136.645 29.5444C137.035 29.6722 137.418 29.7361 137.797 29.7361V29.7339Z" fill="white"/>
<path d="M149.676 11H153.686V27.8715C153.686 28.5922 153.805 29.077 154.045 29.3282C154.286 29.5794 154.614 29.7028 155.033 29.7028C155.352 29.7028 155.681 29.6632 156.02 29.5838C156.359 29.5045 156.659 29.4053 156.917 29.2841L157.455 32.3363C156.917 32.5963 156.287 32.7946 155.57 32.9357C154.852 33.0745 154.204 33.145 153.625 33.145C152.368 33.145 151.394 32.81 150.707 32.1401C150.019 31.4702 149.676 30.516 149.676 29.2753V11.0022V11Z" fill="white"/>
<path d="M167.21 33.1451C165.954 33.1451 164.817 32.9335 163.799 32.5082C162.781 32.0851 161.915 31.5011 161.197 30.7629C160.478 30.0224 159.925 29.174 159.535 28.2176C159.145 27.2612 158.951 26.2497 158.951 25.1853C158.951 23.7066 159.286 22.3536 159.954 21.1305C160.621 19.9074 161.58 18.9246 162.827 18.1864C164.075 17.4459 165.544 17.0757 167.241 17.0757C168.938 17.0757 170.423 17.4459 171.64 18.1864C172.856 18.9268 173.788 19.9052 174.439 21.1217C175.086 22.3359 175.41 23.6449 175.41 25.0487C175.41 25.2867 175.399 25.5269 175.38 25.7737C175.36 26.0205 175.34 26.2233 175.32 26.3819H163.202C163.281 27.162 163.517 27.843 163.905 28.4292C164.293 29.0132 164.793 29.4583 165.401 29.7602C166.009 30.0621 166.662 30.2142 167.36 30.2142C168.158 30.2142 168.912 30.0202 169.619 29.6302C170.326 29.2401 170.811 28.7289 171.071 28.0898L174.513 29.0462C174.134 29.8439 173.59 30.5535 172.883 31.1706C172.175 31.7898 171.342 32.2724 170.384 32.6228C169.425 32.971 168.37 33.1473 167.213 33.1473L167.21 33.1451ZM163.112 23.8389H171.309C171.23 23.0587 171.005 22.3822 170.637 21.807C170.267 21.2319 169.784 20.7845 169.185 20.4628C168.586 20.141 167.918 19.9802 167.18 19.9802C166.441 19.9802 165.807 20.141 165.22 20.4628C164.632 20.7845 164.154 21.2319 163.784 21.807C163.413 22.3822 163.191 23.0587 163.109 23.8389H163.112Z" fill="white"/>
</g>
<defs>
<clipPath id="clip0_199_48">
<rect width="176" height="45" fill="white"/>
</clipPath>
</defs>
</svg>
