<svg xmlns="http://www.w3.org/2000/svg" viewBox="0 0 44.1 44.8"><path fill="#0086FF" d="M6.29588 29.7058H.03248v14.7763H14.693v-6.3544H6.29588v-8.4219zm31.52362.0692v8.3527h-8.3971v6.3544h14.6605V29.7058h-6.3323l.0689.0692zM.03247 15.0055h6.33224l-.06883-.0691V6.58368H14.693V.22925H.03247V15.0055zM29.4224.22925v6.35443h8.3971v8.42182h6.2634V.22925H29.4224z"/><path fill="#93EAFF" d="M28.5963 15.0055l-8.3971-8.42182h9.223V.22925H14.6929v6.35443L23.09 15.0055h5.5063zm-7.5712 14.7003h-5.5063l6.9517 6.9767 1.3766 1.4452h-9.1542v6.3544h14.7293v-6.4236l-4.1985-4.1487-4.1986-4.204zm16.7944-14.7002v9.1825l-1.4454-1.4521-6.9517-6.9767v5.5938l4.1297 4.1487 4.1985 4.211h6.3323V15.0056h-6.2634zM14.693 23.3583l-8.32829-8.3527H.03247v14.7002h6.26341v-9.1824l8.39712 8.4288v-5.5939z"/></svg>
