<svg xmlns="http://www.w3.org/2000/svg" viewBox="0 0 39.5 44.8" fill="none">
<path d="M37.8241 9.93961L33.7715 7.59928L31.5281 6.3035C31.4466 6.2418 31.365 6.1823 31.2813 6.125L31.2659 6.15365L28.2248 11.4205L27.0766 13.4083L16.0603 32.4902L16.0559 32.499H25.1814L27.3345 28.7659C27.6628 28.1973 27.2529 27.4855 26.5962 27.4855H22.2924L30.5276 13.2188L30.7215 12.8838L30.7304 12.8662L31.7441 13.4502C32.7578 14.0363 33.3836 15.1184 33.3836 16.2885V28.2701C33.3836 29.4402 32.76 30.5222 31.7441 31.1084L30.6775 31.7255L22.4312 36.4855L21.3668 37.1003C20.3531 37.6865 19.1036 37.6865 18.0899 37.1003L17.0762 36.5163L14.5684 35.0685L11.5273 40.3353L11.7961 40.4918L14.0329 41.7832L18.0855 44.1235C19.0992 44.7097 20.3487 44.7097 21.3624 44.1235L27.6474 40.4962C27.6474 40.4962 27.6496 40.4962 27.6518 40.4962L31.5039 38.2727L37.8175 34.6277C38.8312 34.0416 39.457 32.9595 39.457 31.7894V12.7868C39.457 11.6167 38.8334 10.5346 37.8175 9.94842L37.8241 9.93961Z" fill="white"/>
<path d="M14.4982 27.4835L21.3186 15.6694L23.1808 12.4476H14.0552L11.9022 16.1807C11.5739 16.7493 11.9837 17.4611 12.6404 17.4611H16.9465L9.42083 30.4959L8.73107 31.6926L7.71737 31.1086C6.70366 30.5224 6.07782 29.4404 6.07782 28.2702V16.2887C6.07782 15.1185 6.70146 14.0365 7.71737 13.4503L8.78396 12.8355L17.0302 8.07547L18.0946 7.46064C19.1083 6.87446 20.3578 6.87446 21.3715 7.46064L24.8886 9.49025L25.228 8.90407L27.9297 4.2256L27.9452 4.19696C27.8526 4.15509 27.7578 4.11322 27.6631 4.07135L25.4241 2.77997L21.3715 0.439639C20.3578 -0.146546 19.1083 -0.146546 18.0946 0.439639L11.8118 4.06693L7.94876 6.29709L1.63956 9.93981C0.625852 10.526 0 11.608 0 12.7782V31.7807C0 32.9509 0.623649 34.0329 1.63956 34.6191L5.69217 36.9594L7.93774 38.2574L8.19778 38.4072L10.8995 33.7288L11.2367 33.1426L11.6091 32.4991L14.5004 27.4879L14.4982 27.4835Z" fill="#008080"/>
</svg>
